<?xml version="1.0" standalone="no"?>
<!DOCTYPE svg PUBLIC "-//W3C//DTD SVG 20010904//EN"
 "http://www.w3.org/TR/2001/REC-SVG-20010904/DTD/svg10.dtd">
<svg version="1.0" xmlns="http://www.w3.org/2000/svg"
 width="256.000000pt" height="256.000000pt" viewBox="0 0 256.000000 256.000000"
 preserveAspectRatio="xMidYMid meet">
<metadata>
Created by potrace 1.16, written by Peter Selinger 2001-2019
</metadata>
<g transform="translate(0.000000,256.000000) scale(0.100000,-0.100000)" stroke="none">
<path d="M467 2220 c-112 -19 -247 -120 -295 -221 -74 -153 -40 -334 85 -455
l45 -44 -25 -63 c-94 -236 -82 -520 32 -745 84 -167 263 -341 444 -433 109
-56 115 -55 63 2 -188 209 -176 523 28 724 125 123 253 175 434 175 122 0 200
-18 292 -66 306 -161 400 -528 203 -795 -51 -69 -46 -70 63 -8 146 83 297 234
375 374 21 39 53 113 70 165 27 80 32 115 37 224 6 152 -6 234 -54 362 l-34
91 44 45 c24 25 56 72 72 104 26 54 29 69 29 164 0 99 -2 110 -32 171 -41 82
-111 150 -201 192 -63 30 -74 32 -178 32 -107 0 -112 -1 -186 -38 -53 -26 -91
-54 -127 -93 -28 -31 -51 -59 -51 -63 0 -5 -23 -2 -52 5 -155 41 -391 43 -543
5 l-80 -20 -14 22 c-32 48 -120 125 -172 149 -55 26 -151 49 -198 47 -14 -1
-48 -5 -74 -9z m1598 -229 c47 -22 99 -74 114 -114 25 -65 7 -161 -36 -200
-20 -17 -22 -16 -102 62 -72 70 -204 170 -243 183 -19 7 15 42 66 67 53 27
146 28 201 2z m-1420 -15 c45 -21 84 -52 74 -60 -2 -1 -38 -26 -80 -54 -41
-29 -113 -90 -159 -137 -81 -83 -83 -85 -102 -68 -55 50 -69 156 -30 230 53
102 185 142 297 89z"/>
<path d="M1203 1120 c-124 -26 -186 -117 -136 -200 9 -16 39 -41 66 -56 122
-66 304 -30 351 70 53 111 -113 221 -281 186z"/>
</g>
</svg>
